<?xml version="1.0" encoding="UTF-8" standalone="no"?>
<svg
   enable-background="new 0 0 32 32"
   height="37"
   id="Layer_1"
   version="1.1"
   viewBox="0 0 140.93401 37"
   width="140.93401"
   xml:space="preserve"
   sodipodi:docname="Picaps_Asso_icon.svg"
   inkscape:version="1.2 (dc2aeda, 2022-05-15)"
   xmlns:inkscape="http://www.inkscape.org/namespaces/inkscape"
   xmlns:sodipodi="http://sodipodi.sourceforge.net/DTD/sodipodi-0.dtd"
   xmlns="http://www.w3.org/2000/svg"
   xmlns:svg="http://www.w3.org/2000/svg"><defs
     id="defs26" /><sodipodi:namedview
     id="namedview24"
     pagecolor="#ffffff"
     bordercolor="#000000"
     borderopacity="0.25"
     inkscape:showpageshadow="2"
     inkscape:pageopacity="0.0"
     inkscape:pagecheckerboard="0"
     inkscape:deskcolor="#d1d1d1"
     showgrid="false"
     inkscape:zoom="7.375"
     inkscape:cx="124.61017"
     inkscape:cy="14.983051"
     inkscape:window-width="1328"
     inkscape:window-height="669"
     inkscape:window-x="364"
     inkscape:window-y="250"
     inkscape:window-maximized="0"
     inkscape:current-layer="Layer_1" /><g
     id="g13"
     transform="translate(-3.3220339,2.1694916)"><path
       d="M 15.994,29.78 C 13.501,28.483 6,23.767 6,14 V 5.903 C 10.611,5.455 14.206,3.566 16,2.43 17.794,3.565 21.389,5.454 26,5.903 V 14 c 0,0.71 -0.051,1.386 -0.127,2.044 0.684,0.066 1.344,0.213 1.974,0.423 C 27.945,15.678 28,14.858 28,14 28,8.6 28,4 28,4 21,4 16,0 16,0 16,0 11,4 4,4 c 0,0 0,4.6 0,10 0,13 12,18 12,18 0,0 0.881,-0.369 2.16,-1.159 -0.433,-0.507 -0.812,-1.061 -1.125,-1.657 -0.4,0.245 -0.757,0.446 -1.041,0.596 z"
       fill="#1e2f97"
       id="path9" /><path
       d="M 23.847,16.082 C 23.938,15.415 24,14.728 24,14 V 7.646 C 20.589,7.041 17.81,5.775 16,4.758 14.19,5.775 11.412,7.041 8,7.646 V 14 c 0,7.656 5.297,11.848 7.988,13.481 0.099,-0.061 0.209,-0.133 0.315,-0.201 C 16.112,26.551 16,25.79 16,25 c 0,-4.579 3.422,-8.351 7.847,-8.918 z"
       fill="#1e2f97"
       id="path11" /></g><g
     id="g21"
     transform="translate(-3.3220339,2.1694916)"><polygon
       fill="#4adede"
       points="22.9,26.4 23.8,25.5 23.1,24.8 20.5,27.4 22.7,29.6 25,27.3 25.3,27 25,26.7 24.5,26.2 23.6,27.1 "
       id="polygon15" /><polygon
       fill="#4adede"
       points="25,23.4 25.5,23.9 26.4,23 27.1,23.7 26.2,24.6 26.9,25.3 29.5,22.7 27.3,20.5 25,22.8 24.7,23.1 "
       id="polygon17" /><path
       d="m 25,18 c -3.85,0 -7,3.15 -7,7 0,3.85 3.15,7 7,7 3.85,0 7,-3.15 7,-7 0,-3.85 -3.15,-7 -7,-7 z m 2.5,8.2 c -0.3,0.3 -0.8,0.3 -1.1,0 l -0.9,-0.9 -0.2,0.2 0.9,0.9 c 0.3,0.3 0.3,0.8 0,1.1 l -3,3 c -0.3,0.3 -0.8,0.3 -1.1,0 L 19.6,28 c -0.3,-0.3 -0.4,-0.8 0,-1.2 l 2.9,-2.9 c 0.3,-0.3 0.8,-0.3 1.1,0 l 0.9,0.9 0.2,-0.2 -0.9,-0.9 c -0.3,-0.3 -0.3,-0.8 0,-1.1 l 3,-3 c 0.3,-0.3 0.8,-0.3 1.1,0 l 2.5,2.5 c 0.4,0.4 0.4,0.8 0,1.2 z"
       fill="#4adede"
       id="path19" /><text
       xml:space="preserve"
       style="font-size:17.8179px;fill:#ffffff;stroke-width:1.48482"
       x="10.394992"
       y="21.07848"
       id="text240"
       transform="scale(1.0575088,0.94561861)"><tspan
         sodipodi:role="line"
         id="tspan238"
         x="10.394992"
         y="21.07848"
         style="stroke-width:1.48482">P</tspan></text><text
       xml:space="preserve"
       style="fill:#0000ff"
       x="29.627119"
       y="10.169492"
       id="text396"><tspan
         sodipodi:role="line"
         id="tspan394"
         x="29.627119"
         y="10.169492" /></text></g><text
     xml:space="preserve"
     style="fill:#1e2f97;fill-opacity:1"
     x="25.627117"
     y="18.576271"
     id="text1219"><tspan
       sodipodi:role="line"
       id="tspan1217"
       x="25.627117"
       y="18.576271">icAps Association</tspan></text></svg>
